<?xml version="1.0" standalone="no"?>
<!DOCTYPE svg PUBLIC "-//W3C//DTD SVG 20010904//EN"
 "http://www.w3.org/TR/2001/REC-SVG-20010904/DTD/svg10.dtd">
<svg version="1.0" xmlns="http://www.w3.org/2000/svg"
 width="400" height="400" viewBox="0 0 2000.000000 2000.000000"
 preserveAspectRatio="xMidYMid meet">
<g transform="translate(0.000000,2000.000000) scale(0.100000,-0.100000)"
fill="white" stroke="none">
<path d="M8969 16880 c-574 -32 -1162 -165 -1644 -372 -591 -253 -997 -522
-1498 -993 -431 -404 -767 -889 -1050 -1515 -133 -294 -230 -593 -302 -933
-77 -365 -103 -584 -112 -957 -17 -763 118 -1437 429 -2135 108 -242 212 -429
376 -674 134 -201 145 -214 306 -406 224 -265 408 -445 676 -658 172 -137 528
-366 758 -487 31 -17 64 -35 74 -42 13 -10 25 -5 70 29 108 82 309 187 407
211 75 20 89 34 40 43 -38 6 -172 66 -329 147 -406 210 -725 440 -1039 747
-474 465 -772 921 -1025 1570 -83 211 -159 497 -210 790 -24 133 -30 179 -56
423 -6 57 -11 224 -11 370 0 222 4 301 25 472 65 531 211 1030 428 1464 256
511 538 890 938 1258 323 298 647 527 985 696 483 241 959 392 1430 452 662
85 1280 37 1905 -147 181 -53 278 -89 490 -181 352 -151 582 -283 875 -502
539 -403 910 -831 1262 -1455 98 -173 160 -311 268 -595 104 -272 183 -591
226 -915 26 -201 37 -638 20 -847 -30 -366 -131 -822 -244 -1104 -35 -85 -35
-85 -8 -95 14 -5 35 -14 46 -21 11 -6 60 -33 109 -60 96 -52 142 -83 194 -132
36 -34 42 -31 65 34 8 25 34 92 56 150 64 162 152 494 192 725 61 344 84 773
60 1134 -26 387 -116 838 -238 1186 -25 72 -53 155 -63 185 -19 59 -59 150
-162 375 -208 453 -572 962 -963 1349 -110 109 -350 322 -448 399 -116 90
-403 283 -527 354 -554 318 -1101 511 -1725 608 -320 50 -750 72 -1056 55z"/>
<path d="M12395 15850 c3 -5 11 -10 16 -10 6 0 7 5 4 10 -3 6 -11 10 -16 10
-6 0 -7 -4 -4 -10z"/>
<path d="M8948 15590 c-473 -40 -1049 -216 -1463 -448 -406 -227 -772 -545
-1089 -946 -227 -287 -479 -784 -595 -1175 -44 -148 -98 -405 -116 -556 -22
-184 -30 -559 -16 -730 31 -367 103 -688 228 -1015 139 -362 316 -673 551
-966 520 -650 1354 -1121 2213 -1250 57 -8 119 -20 137 -25 19 -6 35 -9 38 -7
2 3 -17 112 -43 243 -48 239 -48 239 -138 256 -377 72 -807 244 -1135 455
-600 385 -1040 973 -1256 1679 -230 752 -152 1629 207 2322 199 384 422 670
729 935 315 273 642 462 1035 598 179 62 278 87 505 126 353 61 672 59 1066
-6 190 -32 223 -40 444 -112 251 -82 483 -191 720 -339 84 -52 336 -244 420
-320 112 -100 330 -349 422 -480 520 -743 695 -1610 497 -2464 -16 -71 -39
-159 -51 -195 -30 -94 -135 -346 -169 -406 -35 -62 -36 -71 -6 -79 36 -12 184
-105 233 -148 45 -40 45 -40 112 -9 37 16 76 33 87 36 15 5 34 42 74 149 199
529 258 797 268 1222 19 816 -224 1574 -719 2244 -39 53 -120 150 -179 216
-298 333 -578 553 -974 764 -435 232 -827 354 -1340 417 -145 18 -549 26 -697
14z"/>
<path d="M11890 15470 c0 -5 5 -10 11 -10 5 0 7 5 4 10 -3 6 -8 10 -11 10 -2
0 -4 -4 -4 -10z"/>
<path d="M12860 15440 c0 -5 5 -10 10 -10 6 0 10 5 10 10 0 6 -4 10 -10 10 -5
0 -10 -4 -10 -10z"/>
<path d="M12005 15370 c3 -5 11 -10 16 -10 6 0 7 5 4 10 -3 6 -11 10 -16 10
-6 0 -7 -4 -4 -10z"/>
<path d="M12955 15310 c-3 -5 -1 -10 4 -10 6 0 11 5 11 10 0 6 -2 10 -4 10 -3
0 -8 -4 -11 -10z"/>
<path d="M12355 15010 c4 -6 11 -8 16 -5 14 9 11 15 -7 15 -8 0 -12 -5 -9 -10z"/>
<path d="M6775 14750 c-3 -5 1 -10 10 -10 9 0 13 5 10 10 -3 6 -8 10 -10 10
-2 0 -7 -4 -10 -10z"/>
<path d="M12670 14690 c0 -5 5 -10 10 -10 6 0 10 5 10 10 0 6 -4 10 -10 10 -5
0 -10 -4 -10 -10z"/>
<path d="M12735 14620 c3 -5 8 -10 11 -10 2 0 4 5 4 10 0 6 -5 10 -11 10 -5 0
-7 -4 -4 -10z"/>
<path d="M9027 14280 c-108 -12 -312 -53 -429 -86 -523 -151 -973 -493 -1275
-969 -96 -152 -210 -409 -264 -595 -63 -218 -97 -540 -79 -747 57 -643 295
-1140 745 -1561 115 -108 253 -208 393 -285 83 -46 402 -187 423 -187 6 0 9
10 7 23 -3 12 -22 96 -43 187 -21 91 -45 203 -54 250 -16 79 -19 86 -52 104
-272 151 -509 375 -666 627 -294 470 -361 1028 -188 1547 160 479 522 868
1011 1087 113 51 357 119 483 136 127 17 432 6 551 -19 262 -57 496 -154 715
-297 208 -136 442 -393 555 -608 137 -261 220 -580 220 -842 -1 -332 -83 -623
-251 -888 -70 -111 -70 -111 -55 -162 23 -75 66 -264 66 -290 0 -13 3 -26 8
-28 4 -3 52 17 107 44 55 26 123 54 150 61 28 6 58 18 67 26 35 29 163 274
230 440 93 232 148 530 148 802 0 154 -37 421 -80 572 -131 469 -397 874 -772
1175 -293 235 -651 391 -1063 464 -138 24 -461 34 -608 19z"/>
<path d="M7190 14260 c-11 -7 -12 -12 -4 -20 8 -8 14 -7 23 4 14 17 1 28 -19
16z"/>
<path d="M7076 14152 c-2 -4 -1 -14 3 -21 6 -10 10 -9 14 3 6 16 -8 32 -17 18z"/>
<path d="M6966 14031 c-4 -7 -5 -15 -2 -18 9 -9 19 4 14 18 -4 11 -6 11 -12 0z"/>
<path d="M6857 13914 c-8 -8 1 -24 14 -24 5 0 9 7 9 15 0 15 -12 20 -23 9z"/>
<path d="M11090 13540 c0 -5 5 -10 11 -10 5 0 7 5 4 10 -3 6 -8 10 -11 10 -2
0 -4 -4 -4 -10z"/>
<path d="M10330 13379 c0 -5 5 -7 10 -4 6 3 10 8 10 11 0 2 -4 4 -10 4 -5 0
-10 -5 -10 -11z"/>
<path d="M8172 13361 c2 -7 7 -12 11 -12 12 1 9 15 -3 20 -7 2 -11 -2 -8 -8z"/>
<path d="M10442 13249 c2 -7 10 -15 17 -17 8 -3 12 1 9 9 -2 7 -10 15 -17 17
-8 3 -12 -1 -9 -9z"/>
<path d="M10560 13124 c0 -8 5 -12 10 -9 6 3 10 10 10 16 0 5 -4 9 -10 9 -5 0
-10 -7 -10 -16z"/>
<path d="M10656 13022 c-2 -4 4 -9 15 -9 11 -1 17 2 14 8 -7 11 -22 12 -29 1z"/>
<path d="M7850 13010 c-13 -8 -12 -10 3 -10 9 0 17 5 17 10 0 12 -1 12 -20 0z"/>
<path d="M9126 12816 c-33 -8 -103 -36 -155 -62 -79 -40 -112 -64 -187 -139
-103 -103 -152 -186 -184 -312 -28 -109 -25 -204 9 -374 62 -306 102 -496 117
-554 14 -53 54 -235 164 -745 35 -163 66 -304 120 -550 23 -102 66 -302 96
-445 30 -143 66 -307 80 -365 14 -58 54 -242 90 -410 35 -168 73 -344 84 -391
11 -48 54 -250 95 -450 41 -200 80 -379 85 -399 6 -20 14 -59 20 -86 5 -27 28
-130 50 -229 82 -360 150 -688 145 -694 -5 -4 -18 6 -150 114 -520 425 -892
643 -1262 741 -80 21 -129 26 -268 31 -199 6 -292 -7 -445 -64 -117 -43 -193
-89 -270 -160 -115 -106 -165 -224 -158 -373 8 -167 87 -269 318 -407 532
-319 1080 -790 1685 -1448 444 -482 778 -773 1240 -1081 296 -198 643 -386
868 -471 38 -14 75 -35 82 -47 8 -12 50 -172 95 -356 44 -184 87 -359 96 -388
20 -68 70 -124 130 -147 68 -26 114 -16 604 125 132 38 241 68 545 149 83 22
283 76 445 121 162 45 369 102 460 125 168 43 407 108 720 195 96 27 261 72
365 100 276 73 436 120 465 135 65 34 110 112 110 192 0 26 -46 232 -106 472
-66 263 -103 430 -98 437 233 329 328 552 380 894 22 140 25 468 5 610 -16
117 -85 454 -151 740 -53 228 -140 619 -198 890 -12 52 -42 185 -67 295 -25
110 -59 261 -76 335 -16 74 -36 162 -44 195 -8 33 -30 130 -49 215 -94 414
-100 433 -172 542 -76 114 -189 199 -331 249 -85 30 -260 37 -355 14 -94 -22
-188 -65 -255 -116 -53 -39 -142 -155 -168 -216 -8 -18 -18 -33 -23 -33 -5 0
-23 64 -42 143 -66 284 -109 385 -214 496 -102 108 -235 181 -390 216 -52 11
-202 6 -277 -10 -139 -28 -286 -122 -385 -246 -85 -106 -124 -202 -140 -347
-4 -34 -10 -65 -15 -68 -10 -6 -30 61 -64 216 -60 267 -101 356 -215 470 -86
86 -157 131 -273 174 -77 28 -91 30 -222 30 -125 0 -148 -3 -215 -26 -223 -77
-405 -254 -472 -458 -37 -114 -35 -234 6 -445 40 -206 43 -195 -52 -216 -49
-11 -56 -11 -67 5 -14 18 -105 381 -255 1016 -45 192 -96 406 -205 855 -19 77
-48 197 -65 268 -16 70 -44 184 -60 255 -17 70 -37 154 -45 187 -8 33 -26 112
-39 175 -58 266 -126 514 -158 579 -48 97 -171 217 -268 264 -41 20 -102 43
-135 52 -83 22 -255 28 -329 11z"/>
<path d="M9860 12649 c0 -5 5 -7 10 -4 6 3 10 8 10 11 0 2 -4 4 -10 4 -5 0
-10 -5 -10 -11z"/>
<path d="M7855 10980 c-3 -5 -1 -10 4 -10 6 0 11 5 11 10 0 6 -2 10 -4 10 -3
0 -8 -4 -11 -10z"/>
<path d="M13780 10234 c0 -8 5 -12 10 -9 6 4 8 11 5 16 -9 14 -15 11 -15 -7z"/>
<path d="M12450 9959 c0 -5 5 -7 10 -4 6 3 10 8 10 11 0 2 -4 4 -10 4 -5 0
-10 -5 -10 -11z"/>
<path d="M6570 9465 c0 -8 7 -15 15 -15 8 0 15 4 15 9 0 5 -7 11 -15 15 -9 3
-15 0 -15 -9z"/>
<path d="M14965 9310 c3 -5 10 -10 16 -10 5 0 9 5 9 10 0 6 -7 10 -16 10 -8 0
-12 -4 -9 -10z"/>
<path d="M5970 9200 c0 -5 5 -10 10 -10 6 0 10 5 10 10 0 6 -4 10 -10 10 -5 0
-10 -4 -10 -10z"/>
<path d="M5450 8790 c0 -5 5 -10 10 -10 6 0 10 5 10 10 0 6 -4 10 -10 10 -5 0
-10 -4 -10 -10z"/>
<path d="M6397 8763 c-3 -5 -2 -15 2 -22 7 -10 10 -10 16 -1 4 6 3 16 -3 22
-5 5 -12 6 -15 1z"/>
<path d="M5775 8460 c3 -5 8 -10 11 -10 2 0 4 5 4 10 0 6 -5 10 -11 10 -5 0
-7 -4 -4 -10z"/>
<path d="M6000 8250 c0 -5 5 -10 11 -10 5 0 7 5 4 10 -3 6 -8 10 -11 10 -2 0
-4 -4 -4 -10z"/>
<path d="M6126 8152 c-3 -6 -1 -14 5 -17 15 -10 25 3 12 16 -7 7 -13 7 -17 1z"/>
<path d="M7900 6134 c0 -8 5 -12 10 -9 6 4 8 11 5 16 -9 14 -15 11 -15 -7z"/>
<path d="M8015 6010 c3 -5 8 -10 11 -10 2 0 4 5 4 10 0 6 -5 10 -11 10 -5 0
-7 -4 -4 -10z"/>
<path d="M8350 5790 c0 -5 5 -10 10 -10 6 0 10 5 10 10 0 6 -4 10 -10 10 -5 0
-10 -4 -10 -10z"/>
<path d="M8568 5563 c7 -3 16 -2 19 1 4 3 -2 6 -13 5 -11 0 -14 -3 -6 -6z"/>
<path d="M8790 5346 c0 -9 5 -16 10 -16 6 0 10 4 10 9 0 6 -4 13 -10 16 -5 3
-10 -1 -10 -9z"/>
<path d="M8905 5249 c-9 -14 -2 -20 14 -10 8 6 9 11 3 15 -6 3 -14 1 -17 -5z"/>
<path d="M9112 5029 c2 -7 10 -15 17 -17 8 -3 12 1 9 9 -2 7 -10 15 -17 17 -8
3 -12 -1 -9 -9z"/>
<path d="M9450 4689 c0 -5 5 -7 10 -4 6 3 10 8 10 11 0 2 -4 4 -10 4 -5 0 -10
-5 -10 -11z"/>
<path d="M9680 4454 c0 -8 5 -12 10 -9 6 3 10 10 10 16 0 5 -4 9 -10 9 -5 0
-10 -7 -10 -16z"/>
<path d="M10230 4010 c0 -5 5 -10 10 -10 6 0 10 5 10 10 0 6 -4 10 -10 10 -5
0 -10 -4 -10 -10z"/>
<path d="M15375 3460 c-16 -7 -17 -9 -3 -9 9 -1 20 4 23 9 7 11 7 11 -20 0z"/>
<path d="M15075 3350 c4 -6 11 -8 16 -5 14 9 11 15 -7 15 -8 0 -12 -5 -9 -10z"/>
<path d="M11556 2582 c-7 -12 22 -38 31 -28 4 3 0 14 -9 22 -9 10 -18 12 -22
6z"/>
</g>
</svg>
